<svg width="85" height="126" viewBox="0 0 85 126" fill="none" xmlns="http://www.w3.org/2000/svg">
<path d="M22 1.5H42.5V42.5H22C10.6782 42.5 1.5 33.3218 1.5 22C1.5 10.6782 10.6782 1.5 22 1.5Z" stroke="white" stroke-width="3"/>
<path d="M63 83.5C51.6782 83.5 42.5 74.3218 42.5 63C42.5 51.6782 51.6782 42.5 63 42.5C74.3218 42.5 83.5 51.6782 83.5 63C83.5 74.3218 74.3218 83.5 63 83.5Z" stroke="white" stroke-width="3"/>
<path d="M22 42.5H42.5V83.5H22C10.6782 83.5 1.5 74.3218 1.5 63C1.5 51.6782 10.6782 42.5 22 42.5Z" stroke="white" stroke-width="3"/>
<path d="M63 42.5L42.5 42.5L42.5 1.5L63 1.5C74.3218 1.5 83.5 10.6782 83.5 22C83.5 33.3218 74.3218 42.5 63 42.5Z" stroke="white" stroke-width="3"/>
<path d="M22 83.5H42.5V104C42.5 115.322 33.3218 124.5 22 124.5C10.6782 124.5 1.5 115.322 1.5 104C1.5 92.6782 10.6782 83.5 22 83.5Z" stroke="white" stroke-width="3"/>
<path d="M42.5 54.5V44H55.5L42.5 54.5Z" fill="white"/>
</svg>
